<svg width="17" height="17" viewBox="0 0 17 17" fill="none" xmlns="http://www.w3.org/2000/svg">
<path d="M16.1746 4.7136C16.1351 3.85988 15.9979 3.27686 15.7974 2.76678C15.5938 2.23161 15.2745 1.74686 14.8618 1.34618C14.4567 0.938168 13.9663 0.622305 13.425 0.420866C12.909 0.222732 12.3195 0.0872573 11.456 0.0484627C10.591 0.00930091 10.3146 0 8.11166 0C5.90873 0 5.63234 0.00930091 4.76729 0.0482179C3.90384 0.0872573 3.3143 0.222855 2.79829 0.421111C2.25702 0.622427 1.76675 0.938168 1.36152 1.34618C0.948853 1.74674 0.629392 2.23148 0.425659 2.76665C0.225269 3.27686 0.088251 3.85988 0.0490146 4.71348C0.00940684 5.56892 0 5.84208 0 8.0202C0 10.1985 0.00940684 10.4717 0.0490146 11.327C0.0883747 12.1806 0.225517 12.7637 0.426031 13.2739C0.629639 13.8089 0.948977 14.2938 1.36164 14.6943C1.76675 15.1024 2.25715 15.4181 2.79841 15.6194C3.3143 15.8178 3.90396 15.9533 4.76741 15.9923C5.63259 16.0313 5.90885 16.0405 8.11179 16.0405C10.3147 16.0405 10.5911 16.0313 11.4562 15.9923C12.3196 15.9533 12.9092 15.8178 13.4252 15.6194C14.5147 15.2028 15.3761 14.3512 15.7974 13.2739C15.9981 12.7637 16.1351 12.1806 16.1746 11.327C16.2139 10.4716 16.2233 10.1985 16.2233 8.02032C16.2233 5.84208 16.2139 5.56892 16.1746 4.7136ZM14.7144 11.2613C14.6784 12.0433 14.5462 12.468 14.4352 12.7506C14.1622 13.4501 13.6032 14.0029 12.8957 14.2727C12.6099 14.3825 12.1804 14.5132 11.3895 14.5488C10.5343 14.5875 10.2777 14.5956 8.11166 14.5956C5.94549 14.5956 5.68903 14.5875 4.83375 14.5488C4.04296 14.5132 3.61346 14.3825 3.32754 14.2727C2.97528 14.1441 2.65656 13.9391 2.39491 13.6727C2.12545 13.414 1.91813 13.099 1.78804 12.7506C1.67702 12.468 1.54483 12.0433 1.50881 11.2613C1.46982 10.4157 1.46153 10.162 1.46153 8.02045C1.46153 5.87879 1.46982 5.62522 1.50881 4.77945C1.54495 3.99743 1.67702 3.57277 1.78804 3.2902C1.91813 2.94178 2.12557 2.62665 2.39491 2.36794C2.65656 2.10152 2.97528 1.89653 3.32767 1.76803C3.61346 1.65813 4.04296 1.52755 4.83388 1.49182C5.68916 1.45327 5.94574 1.44507 8.11166 1.44507H8.11154C10.2775 1.44507 10.534 1.45327 11.3895 1.49194C12.1804 1.52755 12.6097 1.65825 12.8957 1.76803C13.2479 1.89665 13.5666 2.10164 13.8283 2.36794C14.0978 2.62665 14.3051 2.94178 14.435 3.2902C14.5462 3.57277 14.6784 3.99743 14.7144 4.77945C14.7534 5.62509 14.7617 5.87879 14.7617 8.02032C14.7617 10.162 14.7535 10.4156 14.7144 11.2613Z" fill="url(#paint0_linear_1_279)"/>
<path d="M8.11154 3.90161C5.81107 3.90161 3.94617 5.7457 3.94617 8.02033C3.94617 10.295 5.81107 12.1389 8.11154 12.1389C10.4121 12.1389 12.277 10.295 12.277 8.02033C12.277 5.7457 10.4121 3.90161 8.11154 3.90161ZM8.11154 10.6938C6.61833 10.6937 5.40769 9.49677 5.40782 8.0202C5.40782 6.54376 6.61833 5.34672 8.11166 5.34672C9.605 5.34685 10.8155 6.54376 10.8155 8.0202C10.8155 9.49677 9.60488 10.6938 8.11154 10.6938Z" fill="url(#paint1_linear_1_279)"/>
<path d="M13.4152 3.73995C13.4152 4.27203 12.9794 4.7034 12.4419 4.7034C11.9042 4.7034 11.4684 4.27203 11.4684 3.73995C11.4684 3.20774 11.9042 2.77637 12.4419 2.77637C12.9794 2.77637 13.4152 3.20774 13.4152 3.73995Z" fill="url(#paint2_linear_1_279)"/>
<defs>
<linearGradient id="paint0_linear_1_279" x1="1.36143" y1="14.6944" x2="14.709" y2="1.19482" gradientUnits="userSpaceOnUse">
<stop stop-color="#FFD600"/>
<stop offset="0.5" stop-color="#FF0100"/>
<stop offset="1" stop-color="#D800B9"/>
</linearGradient>
<linearGradient id="paint1_linear_1_279" x1="5.16621" y1="10.9326" x2="10.9905" y2="5.04217" gradientUnits="userSpaceOnUse">
<stop stop-color="#FF6400"/>
<stop offset="0.5" stop-color="#FF0100"/>
<stop offset="1" stop-color="#FD0056"/>
</linearGradient>
<linearGradient id="paint2_linear_1_279" x1="11.7535" y1="4.42117" x2="13.116" y2="3.04468" gradientUnits="userSpaceOnUse">
<stop stop-color="#F30072"/>
<stop offset="1" stop-color="#E50097"/>
</linearGradient>
</defs>
</svg>
